<mxfile host="Electron" agent="Mozilla/5.0 (Windows NT 10.0; Win64; x64) AppleWebKit/537.36 (KHTML, like Gecko) draw.io/24.7.5 Chrome/126.0.6478.183 Electron/31.3.0 Safari/537.36" version="24.7.5">
  <diagram name="Page-1" id="BY2GdVJ9Qx3QBZno3a6H">
    <mxGraphModel dx="3034" dy="3536" grid="1" gridSize="10" guides="1" tooltips="1" connect="1" arrows="1" fold="1" page="1" pageScale="1" pageWidth="1600" pageHeight="900" math="0" shadow="0">
      <root>
        <mxCell id="0" />
        <mxCell id="1" parent="0" />
        <mxCell id="Mc8-L0GyPkzgZiNC3ZI8-2" value="" style="group;movable=0;resizable=0;rotatable=0;deletable=0;editable=0;locked=1;connectable=0;" vertex="1" connectable="0" parent="1">
          <mxGeometry x="-1430" y="-1690" width="1580" height="1820" as="geometry" />
        </mxCell>
        <mxCell id="cGPuWbrJMK2eRQ6o65dL-1" value="" style="strokeWidth=1;shadow=0;dashed=0;align=center;html=1;shape=mxgraph.mockup.containers.browserWindow;rSize=0;strokeColor=#666666;strokeColor2=#008cff;strokeColor3=#c4c4c4;mainText=,;recursiveResize=0;container=0;movable=1;resizable=1;rotatable=1;deletable=1;editable=1;locked=0;connectable=1;" parent="Mc8-L0GyPkzgZiNC3ZI8-2" vertex="1">
          <mxGeometry width="1580" height="1820" as="geometry" />
        </mxCell>
        <mxCell id="cGPuWbrJMK2eRQ6o65dL-4" value="Page 1" style="strokeWidth=1;shadow=0;dashed=0;align=center;html=1;shape=mxgraph.mockup.containers.anchor;fontSize=17;fontColor=#666666;align=left;whiteSpace=wrap;" parent="Mc8-L0GyPkzgZiNC3ZI8-2" vertex="1">
          <mxGeometry x="60" y="12" width="110" height="26" as="geometry" />
        </mxCell>
        <mxCell id="cGPuWbrJMK2eRQ6o65dL-5" value="https://www.devflix.com/acteur/:id_acteur" style="strokeWidth=1;shadow=0;dashed=0;align=center;html=1;shape=mxgraph.mockup.containers.anchor;rSize=0;fontSize=17;fontColor=#666666;align=left;" parent="Mc8-L0GyPkzgZiNC3ZI8-2" vertex="1">
          <mxGeometry x="130" y="60" width="340" height="26" as="geometry" />
        </mxCell>
        <mxCell id="cGPuWbrJMK2eRQ6o65dL-2" value="Devflix" style="text;html=1;points=[];align=left;verticalAlign=top;spacingTop=-4;fontSize=45;fontFamily=Verdana;" parent="1" vertex="1">
          <mxGeometry x="-1380" y="-1540" width="340" height="50" as="geometry" />
        </mxCell>
        <mxCell id="cGPuWbrJMK2eRQ6o65dL-13" value="Texte régulier" style="strokeWidth=1;shadow=0;dashed=0;align=left;html=1;shape=mxgraph.mockup.text.callout;linkText=;textSize=17;textColor=#666666;callDir=SE;callStyle=line;fontSize=17;fontColor=#ffffff;align=right;verticalAlign=bottom;strokeColor=#001DBC;fontFamily=Helvetica;fillColor=#0050ef;" parent="1" vertex="1">
          <mxGeometry x="-170" y="-1050" width="480" height="120" as="geometry" />
        </mxCell>
        <mxCell id="cGPuWbrJMK2eRQ6o65dL-15" value="Mentions Legales" style="fillColor=none;strokeColor=none;html=1;fontColor=#0057D8;align=center;verticalAlign=middle;fontStyle=0;fontSize=17;" parent="1" vertex="1">
          <mxGeometry x="-1335" y="50" width="250" height="75" as="geometry" />
        </mxCell>
        <mxCell id="cGPuWbrJMK2eRQ6o65dL-16" value="FAQ" style="fillColor=none;strokeColor=none;html=1;fontColor=#0057D8;align=center;verticalAlign=middle;fontStyle=0;fontSize=17;fontFamily=Helvetica;" parent="1" vertex="1">
          <mxGeometry x="-945" y="50" width="250" height="75" as="geometry" />
        </mxCell>
        <mxCell id="cGPuWbrJMK2eRQ6o65dL-17" value="Contacts" style="fillColor=none;strokeColor=none;html=1;fontColor=#0057D8;align=center;verticalAlign=middle;fontStyle=0;fontSize=17;fontFamily=Helvetica;" parent="1" vertex="1">
          <mxGeometry x="-565" y="50" width="250" height="75" as="geometry" />
        </mxCell>
        <mxCell id="cGPuWbrJMK2eRQ6o65dL-18" value="Carrière&amp;nbsp;" style="fillColor=none;strokeColor=none;html=1;fontColor=#0057D8;align=center;verticalAlign=middle;fontStyle=0;fontSize=17;fontFamily=Helvetica;" parent="1" vertex="1">
          <mxGeometry x="-195" y="50" width="250" height="75" as="geometry" />
        </mxCell>
        <mxCell id="cGPuWbrJMK2eRQ6o65dL-21" value="Retour" style="rounded=1;fillColor=#F1F2F4;strokeColor=none;html=1;whiteSpace=wrap;fontColor=#596780;align=center;verticalAlign=middle;fontStyle=0;fontSize=17;sketch=0;fontFamily=Helvetica;" parent="1" vertex="1">
          <mxGeometry x="-70" y="-20" width="200" height="60" as="geometry" />
        </mxCell>
        <mxCell id="cGPuWbrJMK2eRQ6o65dL-23" value="Editer cette fiche" style="rounded=1;fillColor=#a20025;strokeColor=#6F0000;html=1;whiteSpace=wrap;fontColor=#ffffff;align=center;verticalAlign=middle;fontStyle=0;fontSize=17;sketch=0;fontFamily=Helvetica;" parent="1" vertex="1">
          <mxGeometry x="-280" y="-20" width="200" height="60" as="geometry" />
        </mxCell>
        <mxCell id="cGPuWbrJMK2eRQ6o65dL-25" value="" style="shape=mxgraph.mockup.containers.marginRect;rectMarginTop=10;strokeColor=#666666;strokeWidth=8;rounded=1;arcSize=5;recursiveResize=0;html=1;whiteSpace=wrap;" parent="1" vertex="1">
          <mxGeometry x="-1420" y="-600" width="1560" height="540" as="geometry" />
        </mxCell>
        <mxCell id="cGPuWbrJMK2eRQ6o65dL-26" value="Section" style="shape=rect;strokeColor=#3700CC;fillColor=#6a00ff;strokeWidth=1;dashed=0;rounded=1;arcSize=20;fontSize=22;spacing=2;spacingTop=-2;align=left;autosize=1;spacingLeft=4;resizeWidth=0;resizeHeight=0;perimeter=none;html=1;whiteSpace=wrap;fontColor=#ffffff;" parent="cGPuWbrJMK2eRQ6o65dL-25" vertex="1">
          <mxGeometry x="10" width="100" height="40" as="geometry" />
        </mxCell>
        <mxCell id="cGPuWbrJMK2eRQ6o65dL-27" value="Nom, genre, realisateur" style="html=1;shadow=0;dashed=0;shape=mxgraph.bootstrap.rrect;rSize=5;strokeColor=#DFDFDF;html=1;whiteSpace=wrap;fillColor=#ffffff;fontColor=#000000;verticalAlign=bottom;align=left;spacing=20;fontSize=20;" parent="cGPuWbrJMK2eRQ6o65dL-25" vertex="1">
          <mxGeometry x="30" y="70" width="290" height="380" as="geometry" />
        </mxCell>
        <mxCell id="cGPuWbrJMK2eRQ6o65dL-28" value="Affiche du film" style="html=1;shadow=0;dashed=0;shape=mxgraph.bootstrap.topButton;rSize=5;perimeter=none;whiteSpace=wrap;fillColor=#868E96;strokeColor=#DFDFDF;fontColor=#DEE2E6;resizeWidth=1;fontSize=20;" parent="cGPuWbrJMK2eRQ6o65dL-27" vertex="1">
          <mxGeometry width="290" height="290" relative="1" as="geometry" />
        </mxCell>
        <mxCell id="cGPuWbrJMK2eRQ6o65dL-29" value="Nom, genre, realisateur" style="html=1;shadow=0;dashed=0;shape=mxgraph.bootstrap.rrect;rSize=5;strokeColor=#DFDFDF;html=1;whiteSpace=wrap;fillColor=#ffffff;fontColor=#000000;verticalAlign=bottom;align=left;spacing=20;fontSize=20;" parent="cGPuWbrJMK2eRQ6o65dL-25" vertex="1">
          <mxGeometry x="370" y="70" width="290" height="380" as="geometry" />
        </mxCell>
        <mxCell id="cGPuWbrJMK2eRQ6o65dL-30" value="Affiche du film" style="html=1;shadow=0;dashed=0;shape=mxgraph.bootstrap.topButton;rSize=5;perimeter=none;whiteSpace=wrap;fillColor=#868E96;strokeColor=#DFDFDF;fontColor=#DEE2E6;resizeWidth=1;fontSize=20;" parent="cGPuWbrJMK2eRQ6o65dL-29" vertex="1">
          <mxGeometry width="290" height="290" relative="1" as="geometry" />
        </mxCell>
        <mxCell id="cGPuWbrJMK2eRQ6o65dL-31" value="Nom, genre, r" style="html=1;shadow=0;dashed=0;shape=mxgraph.bootstrap.rrect;rSize=5;strokeColor=#DFDFDF;html=1;whiteSpace=wrap;fillColor=#ffffff;fontColor=#000000;verticalAlign=bottom;align=left;spacing=20;fontSize=20;" parent="cGPuWbrJMK2eRQ6o65dL-25" vertex="1">
          <mxGeometry x="1390" y="70" width="170" height="380" as="geometry" />
        </mxCell>
        <mxCell id="cGPuWbrJMK2eRQ6o65dL-32" value="&amp;nbsp; &amp;nbsp; &amp;nbsp; &amp;nbsp; &amp;nbsp; &amp;nbsp; Affiche du" style="html=1;shadow=0;dashed=0;shape=mxgraph.bootstrap.topButton;rSize=5;perimeter=none;whiteSpace=wrap;fillColor=#868E96;strokeColor=#DFDFDF;fontColor=#DEE2E6;resizeWidth=1;fontSize=20;" parent="cGPuWbrJMK2eRQ6o65dL-31" vertex="1">
          <mxGeometry width="169.99999999999997" height="290" relative="1" as="geometry" />
        </mxCell>
        <mxCell id="cGPuWbrJMK2eRQ6o65dL-33" value="Nom, genre, realisateur" style="html=1;shadow=0;dashed=0;shape=mxgraph.bootstrap.rrect;rSize=5;strokeColor=#DFDFDF;html=1;whiteSpace=wrap;fillColor=#ffffff;fontColor=#000000;verticalAlign=bottom;align=left;spacing=20;fontSize=20;" parent="cGPuWbrJMK2eRQ6o65dL-25" vertex="1">
          <mxGeometry x="710" y="70" width="290" height="380" as="geometry" />
        </mxCell>
        <mxCell id="cGPuWbrJMK2eRQ6o65dL-34" value="Affiche du film" style="html=1;shadow=0;dashed=0;shape=mxgraph.bootstrap.topButton;rSize=5;perimeter=none;whiteSpace=wrap;fillColor=#868E96;strokeColor=#DFDFDF;fontColor=#DEE2E6;resizeWidth=1;fontSize=20;" parent="cGPuWbrJMK2eRQ6o65dL-33" vertex="1">
          <mxGeometry width="290" height="290" relative="1" as="geometry" />
        </mxCell>
        <mxCell id="cGPuWbrJMK2eRQ6o65dL-35" value="Nom, genre, realisateur" style="html=1;shadow=0;dashed=0;shape=mxgraph.bootstrap.rrect;rSize=5;strokeColor=#DFDFDF;html=1;whiteSpace=wrap;fillColor=#ffffff;fontColor=#000000;verticalAlign=bottom;align=left;spacing=20;fontSize=20;" parent="cGPuWbrJMK2eRQ6o65dL-25" vertex="1">
          <mxGeometry x="1050" y="70" width="290" height="380" as="geometry" />
        </mxCell>
        <mxCell id="cGPuWbrJMK2eRQ6o65dL-36" value="Affiche du film" style="html=1;shadow=0;dashed=0;shape=mxgraph.bootstrap.topButton;rSize=5;perimeter=none;whiteSpace=wrap;fillColor=#868E96;strokeColor=#DFDFDF;fontColor=#DEE2E6;resizeWidth=1;fontSize=20;" parent="cGPuWbrJMK2eRQ6o65dL-35" vertex="1">
          <mxGeometry width="290" height="290" relative="1" as="geometry" />
        </mxCell>
        <mxCell id="cGPuWbrJMK2eRQ6o65dL-48" value="" style="verticalLabelPosition=bottom;shadow=0;dashed=0;align=center;html=1;verticalAlign=top;strokeWidth=1;shape=mxgraph.mockup.navigation.scrollBar;strokeColor=#999999;barPos=20;fillColor2=#99ddff;strokeColor2=none;" parent="cGPuWbrJMK2eRQ6o65dL-25" vertex="1">
          <mxGeometry x="30" y="490" width="1510" height="151" as="geometry" />
        </mxCell>
        <mxCell id="cGPuWbrJMK2eRQ6o65dL-40" value="C8" style="strokeWidth=1;shadow=0;dashed=0;align=center;html=1;shape=mxgraph.mockup.text.callout;linkText=;textSize=17;textColor=#666666;callDir=NE;callStyle=line;fontSize=17;align=right;verticalAlign=top;strokeColor=#005700;fillColor=#008a00;fontColor=#ffffff;" parent="1" vertex="1">
          <mxGeometry x="30" y="-140" width="260" height="120" as="geometry" />
        </mxCell>
        <mxCell id="cGPuWbrJMK2eRQ6o65dL-41" value="C36" style="strokeWidth=1;shadow=0;dashed=0;align=center;html=1;shape=mxgraph.mockup.text.callout;linkText=;textSize=17;textColor=#666666;callDir=NE;callStyle=line;fontSize=17;align=right;verticalAlign=top;strokeColor=#005700;fillColor=#008a00;fontColor=#ffffff;" parent="1" vertex="1">
          <mxGeometry x="-180" y="-170" width="470" height="150" as="geometry" />
        </mxCell>
        <mxCell id="cGPuWbrJMK2eRQ6o65dL-44" value="Scrolling&lt;div&gt;horizontale&amp;nbsp;&lt;/div&gt;" style="strokeWidth=1;shadow=0;dashed=0;align=center;html=1;shape=mxgraph.mockup.text.callout;linkText=;textSize=17;textColor=#666666;callDir=SW;callStyle=line;fontSize=17;fontColor=#ffffff;align=left;verticalAlign=bottom;strokeColor=#001DBC;fillColor=#0050ef;" parent="1" vertex="1">
          <mxGeometry x="-1550" y="-100" width="280" height="80" as="geometry" />
        </mxCell>
        <mxCell id="cGPuWbrJMK2eRQ6o65dL-45" value="" style="group" parent="1" vertex="1" connectable="0">
          <mxGeometry x="-440" y="-1780" width="580" height="280" as="geometry" />
        </mxCell>
        <mxCell id="cGPuWbrJMK2eRQ6o65dL-6" value="" style="swimlane;shape=mxgraph.bootstrap.anchor;strokeColor=#999999;fillColor=#ffffff;fontColor=#666666;childLayout=stackLayout;horizontal=0;startSize=0;horizontalStack=1;resizeParent=1;resizeParentMax=0;resizeLast=0;collapsible=0;marginBottom=0;whiteSpace=wrap;html=1;" parent="cGPuWbrJMK2eRQ6o65dL-45" vertex="1">
          <mxGeometry y="230" width="480" height="30" as="geometry" />
        </mxCell>
        <mxCell id="cGPuWbrJMK2eRQ6o65dL-7" value="Catalogue" style="text;strokeColor=inherit;align=center;verticalAlign=middle;spacingLeft=10;spacingRight=10;overflow=hidden;points=[[0,0.5],[1,0.5]];portConstraint=eastwest;rotatable=0;whiteSpace=wrap;html=1;fillColor=inherit;fontColor=inherit;fontSize=17;" parent="cGPuWbrJMK2eRQ6o65dL-6" vertex="1">
          <mxGeometry width="120" height="30" as="geometry" />
        </mxCell>
        <mxCell id="cGPuWbrJMK2eRQ6o65dL-8" value="Acteurs" style="text;strokeColor=#23445d;align=center;verticalAlign=middle;spacingLeft=10;spacingRight=10;overflow=hidden;points=[[0,0.5],[1,0.5]];portConstraint=eastwest;rotatable=0;whiteSpace=wrap;html=1;fillColor=#bac8d3;fontSize=17;" parent="cGPuWbrJMK2eRQ6o65dL-6" vertex="1">
          <mxGeometry x="120" width="120" height="30" as="geometry" />
        </mxCell>
        <mxCell id="cGPuWbrJMK2eRQ6o65dL-9" value="Mon compte" style="text;strokeColor=inherit;align=center;verticalAlign=middle;spacingLeft=10;spacingRight=10;overflow=hidden;points=[[0,0.5],[1,0.5]];portConstraint=eastwest;rotatable=0;whiteSpace=wrap;html=1;fillColor=inherit;fontColor=inherit;fontSize=17;" parent="cGPuWbrJMK2eRQ6o65dL-6" vertex="1">
          <mxGeometry x="240" width="120" height="30" as="geometry" />
        </mxCell>
        <mxCell id="cGPuWbrJMK2eRQ6o65dL-10" value="Déconnexion&amp;nbsp;" style="text;strokeColor=#6F0000;align=center;verticalAlign=middle;spacingLeft=10;spacingRight=10;overflow=hidden;points=[[0,0.5],[1,0.5]];portConstraint=eastwest;rotatable=0;whiteSpace=wrap;html=1;fillColor=#a20025;fontColor=#ffffff;fontSize=17;" parent="cGPuWbrJMK2eRQ6o65dL-6" vertex="1">
          <mxGeometry x="360" width="120" height="30" as="geometry" />
        </mxCell>
        <mxCell id="cGPuWbrJMK2eRQ6o65dL-19" value="C4" style="strokeWidth=1;shadow=0;dashed=0;align=center;html=1;shape=mxgraph.mockup.text.callout;linkText=;textSize=17;textColor=#666666;callDir=NE;callStyle=line;fontSize=17;align=right;verticalAlign=top;strokeColor=#005700;fillColor=#008a00;fontColor=#ffffff;" parent="cGPuWbrJMK2eRQ6o65dL-45" vertex="1">
          <mxGeometry x="180" width="160" height="230" as="geometry" />
        </mxCell>
        <mxCell id="cGPuWbrJMK2eRQ6o65dL-20" value="C1" style="strokeWidth=1;shadow=0;dashed=0;align=center;html=1;shape=mxgraph.mockup.text.callout;linkText=;textSize=17;textColor=#666666;callDir=NE;callStyle=line;fontSize=17;align=right;verticalAlign=top;strokeColor=#005700;fillColor=#008a00;fontColor=#ffffff;" parent="cGPuWbrJMK2eRQ6o65dL-45" vertex="1">
          <mxGeometry x="60" width="160" height="230" as="geometry" />
        </mxCell>
        <mxCell id="cGPuWbrJMK2eRQ6o65dL-22" value="C4" style="strokeWidth=1;shadow=0;dashed=0;align=center;html=1;shape=mxgraph.mockup.text.callout;linkText=;textSize=17;textColor=#666666;callDir=NE;callStyle=line;fontSize=17;align=right;verticalAlign=top;strokeColor=#005700;fillColor=#008a00;fontColor=#ffffff;" parent="cGPuWbrJMK2eRQ6o65dL-45" vertex="1">
          <mxGeometry x="300" width="160" height="230" as="geometry" />
        </mxCell>
        <mxCell id="cGPuWbrJMK2eRQ6o65dL-24" value="C#?" style="strokeWidth=1;shadow=0;dashed=0;align=center;html=1;shape=mxgraph.mockup.text.callout;linkText=;textSize=17;textColor=#666666;callDir=NE;callStyle=line;fontSize=17;align=right;verticalAlign=top;strokeColor=#005700;fillColor=#008a00;fontColor=#ffffff;" parent="cGPuWbrJMK2eRQ6o65dL-45" vertex="1">
          <mxGeometry x="420" width="160" height="230" as="geometry" />
        </mxCell>
        <mxCell id="cGPuWbrJMK2eRQ6o65dL-49" value="" style="verticalLabelPosition=bottom;shadow=0;dashed=0;align=center;html=1;verticalAlign=top;strokeWidth=1;shape=mxgraph.mockup.misc.shoppingCart;strokeColor=#999999;" parent="cGPuWbrJMK2eRQ6o65dL-45" vertex="1">
          <mxGeometry x="520" y="220" width="50" height="50" as="geometry" />
        </mxCell>
        <mxCell id="cGPuWbrJMK2eRQ6o65dL-46" value="&lt;font style=&quot;font-size: 32px;&quot;&gt;Heading 1&lt;/font&gt;" style="text;align=left;fontStyle=1;verticalAlign=middle;spacingLeft=3;spacingRight=3;strokeColor=none;rotatable=0;points=[[0,0.5],[1,0.5]];portConstraint=eastwest;html=1;fontSize=26;" parent="1" vertex="1">
          <mxGeometry x="-1380" y="-1400" width="230" height="26" as="geometry" />
        </mxCell>
        <mxCell id="cGPuWbrJMK2eRQ6o65dL-47" value="&lt;font style=&quot;font-size: 22px;&quot;&gt;Heading 3&lt;/font&gt;" style="text;align=left;fontStyle=1;verticalAlign=middle;spacingLeft=3;spacingRight=3;strokeColor=none;rotatable=0;points=[[0,0.5],[1,0.5]];portConstraint=eastwest;html=1;fontSize=26;" parent="1" vertex="1">
          <mxGeometry x="-1380" y="-1330" width="230" height="26" as="geometry" />
        </mxCell>
        <mxCell id="cGPuWbrJMK2eRQ6o65dL-50" value="&lt;font style=&quot;font-size: 17px;&quot;&gt;Rechercher&lt;/font&gt;" style="strokeWidth=1;shadow=0;dashed=0;align=center;html=1;shape=mxgraph.mockup.forms.searchBox;strokeColor=#999999;mainText=;strokeColor2=#008cff;fontColor=#666666;fontSize=17;align=left;spacingLeft=3;whiteSpace=wrap;" parent="1" vertex="1">
          <mxGeometry x="-640" y="-1550" width="150" height="30" as="geometry" />
        </mxCell>
        <mxCell id="cGPuWbrJMK2eRQ6o65dL-51" value="Case à cocher unique" style="strokeWidth=1;shadow=0;dashed=0;align=center;html=1;shape=mxgraph.mockup.forms.rrect;rSize=0;fillColor=#eeeeee;strokeColor=#999999;gradientColor=#cccccc;align=left;spacingLeft=4;fontSize=17;fontColor=#666666;labelPosition=right;" parent="1" vertex="1">
          <mxGeometry x="-1380" y="-1280" width="15" height="15" as="geometry" />
        </mxCell>
        <mxCell id="cGPuWbrJMK2eRQ6o65dL-53" value="" style="swimlane;strokeColor=#999999;swimlaneFillColor=#FFFFFF;fillColor=#ffffff;fontColor=#666666;fontStyle=0;childLayout=stackLayout;horizontal=1;startSize=0;horizontalStack=0;resizeParent=1;resizeParentMax=0;resizeLast=0;collapsible=0;marginBottom=0;whiteSpace=wrap;html=1;" parent="1" vertex="1">
          <mxGeometry x="-1380" y="-1230" width="150" height="120" as="geometry" />
        </mxCell>
        <mxCell id="cGPuWbrJMK2eRQ6o65dL-54" value="Option 1" style="text;strokeColor=none;align=left;verticalAlign=middle;spacingLeft=27;spacingRight=10;overflow=hidden;points=[[0,0.5],[1,0.5]];portConstraint=eastwest;rotatable=0;whiteSpace=wrap;html=1;fillColor=none;fontColor=inherit;fontSize=17;" parent="cGPuWbrJMK2eRQ6o65dL-53" vertex="1">
          <mxGeometry width="150" height="30" as="geometry" />
        </mxCell>
        <mxCell id="cGPuWbrJMK2eRQ6o65dL-55" value="" style="resizable=0;fillColor=#EEEEEE;strokeColor=#999999;gradientColor=#cccccc;html=1;" parent="cGPuWbrJMK2eRQ6o65dL-54" vertex="1">
          <mxGeometry y="0.5" width="15" height="15" relative="1" as="geometry">
            <mxPoint x="8" y="-7.5" as="offset" />
          </mxGeometry>
        </mxCell>
        <mxCell id="cGPuWbrJMK2eRQ6o65dL-56" value="Option 2" style="text;strokeColor=none;align=left;verticalAlign=middle;spacingLeft=27;spacingRight=10;overflow=hidden;points=[[0,0.5],[1,0.5]];portConstraint=eastwest;rotatable=0;whiteSpace=wrap;html=1;rSize=5;fillColor=none;fontColor=inherit;fontSize=17;" parent="cGPuWbrJMK2eRQ6o65dL-53" vertex="1">
          <mxGeometry y="30" width="150" height="30" as="geometry" />
        </mxCell>
        <mxCell id="cGPuWbrJMK2eRQ6o65dL-57" value="" style="resizable=0;fillColor=#EEEEEE;strokeColor=#999999;gradientColor=#cccccc;html=1;" parent="cGPuWbrJMK2eRQ6o65dL-56" vertex="1">
          <mxGeometry y="0.5" width="15" height="15" relative="1" as="geometry">
            <mxPoint x="8" y="-7.5" as="offset" />
          </mxGeometry>
        </mxCell>
        <mxCell id="cGPuWbrJMK2eRQ6o65dL-58" value="Option 3" style="text;strokeColor=none;align=left;verticalAlign=middle;spacingLeft=27;spacingRight=10;overflow=hidden;points=[[0,0.5],[1,0.5]];portConstraint=eastwest;rotatable=0;whiteSpace=wrap;html=1;rSize=5;fillColor=none;fontColor=#008CFF;fontSize=17;" parent="cGPuWbrJMK2eRQ6o65dL-53" vertex="1">
          <mxGeometry y="60" width="150" height="30" as="geometry" />
        </mxCell>
        <mxCell id="cGPuWbrJMK2eRQ6o65dL-59" value="" style="shape=mxgraph.mockup.forms.checkbox;resizable=0;fillColor=#AAAAAA;gradientColor=#666666;strokeColor=#444444;html=1;" parent="cGPuWbrJMK2eRQ6o65dL-58" vertex="1">
          <mxGeometry y="0.5" width="15" height="15" relative="1" as="geometry">
            <mxPoint x="8" y="-7.5" as="offset" />
          </mxGeometry>
        </mxCell>
        <mxCell id="cGPuWbrJMK2eRQ6o65dL-60" value="Option 4" style="text;strokeColor=none;align=left;verticalAlign=middle;spacingLeft=27;spacingRight=10;overflow=hidden;points=[[0,0.5],[1,0.5]];portConstraint=eastwest;rotatable=0;whiteSpace=wrap;html=1;fillColor=none;fontColor=inherit;fontSize=17;" parent="cGPuWbrJMK2eRQ6o65dL-53" vertex="1">
          <mxGeometry y="90" width="150" height="30" as="geometry" />
        </mxCell>
        <mxCell id="cGPuWbrJMK2eRQ6o65dL-61" value="" style="resizable=0;fillColor=#EEEEEE;strokeColor=#999999;gradientColor=#cccccc;html=1;" parent="cGPuWbrJMK2eRQ6o65dL-60" vertex="1">
          <mxGeometry y="0.5" width="15" height="15" relative="1" as="geometry">
            <mxPoint x="8" y="-7.5" as="offset" />
          </mxGeometry>
        </mxCell>
        <mxCell id="cGPuWbrJMK2eRQ6o65dL-62" value="********" style="strokeWidth=1;shadow=0;dashed=0;align=center;html=1;shape=mxgraph.mockup.forms.pwField;strokeColor=#999999;mainText=;align=left;fontColor=#666666;fontSize=17;spacingLeft=3;" parent="1" vertex="1">
          <mxGeometry x="-1380" y="-1080" width="150" height="30" as="geometry" />
        </mxCell>
        <mxCell id="cGPuWbrJMK2eRQ6o65dL-66" value="" style="strokeWidth=1;shadow=0;dashed=0;align=center;html=1;shape=mxgraph.mockup.forms.rrect;rSize=0;strokeColor=#999999;fillColor=#ffffff;" parent="1" vertex="1">
          <mxGeometry x="-1070" y="-1550" width="200" height="300" as="geometry" />
        </mxCell>
        <mxCell id="cGPuWbrJMK2eRQ6o65dL-67" value="Sign In" style="strokeWidth=1;shadow=0;dashed=0;align=center;html=1;shape=mxgraph.mockup.forms.anchor;fontSize=12;fontColor=#666666;align=left;resizeWidth=1;spacingLeft=0;" parent="cGPuWbrJMK2eRQ6o65dL-66" vertex="1">
          <mxGeometry width="100" height="20" relative="1" as="geometry">
            <mxPoint x="10" y="10" as="offset" />
          </mxGeometry>
        </mxCell>
        <mxCell id="cGPuWbrJMK2eRQ6o65dL-68" value="" style="shape=line;strokeColor=#ddeeff;strokeWidth=2;html=1;resizeWidth=1;" parent="cGPuWbrJMK2eRQ6o65dL-66" vertex="1">
          <mxGeometry width="180" height="10" relative="1" as="geometry">
            <mxPoint x="10" y="30" as="offset" />
          </mxGeometry>
        </mxCell>
        <mxCell id="cGPuWbrJMK2eRQ6o65dL-69" value="User Name:" style="strokeWidth=1;shadow=0;dashed=0;align=center;html=1;shape=mxgraph.mockup.forms.anchor;fontSize=12;fontColor=#666666;align=left;resizeWidth=1;spacingLeft=0;" parent="cGPuWbrJMK2eRQ6o65dL-66" vertex="1">
          <mxGeometry width="100" height="20" relative="1" as="geometry">
            <mxPoint x="10" y="40" as="offset" />
          </mxGeometry>
        </mxCell>
        <mxCell id="cGPuWbrJMK2eRQ6o65dL-70" value="johndoe" style="strokeWidth=1;shadow=0;dashed=0;align=center;html=1;shape=mxgraph.mockup.forms.rrect;rSize=0;strokeColor=#999999;fontColor=#666666;align=left;spacingLeft=5;resizeWidth=1;" parent="cGPuWbrJMK2eRQ6o65dL-66" vertex="1">
          <mxGeometry width="150" height="25" relative="1" as="geometry">
            <mxPoint x="10" y="60" as="offset" />
          </mxGeometry>
        </mxCell>
        <mxCell id="cGPuWbrJMK2eRQ6o65dL-71" value="Password:" style="strokeWidth=1;shadow=0;dashed=0;align=center;html=1;shape=mxgraph.mockup.forms.anchor;fontSize=12;fontColor=#666666;align=left;resizeWidth=1;spacingLeft=0;" parent="cGPuWbrJMK2eRQ6o65dL-66" vertex="1">
          <mxGeometry width="100" height="20" relative="1" as="geometry">
            <mxPoint x="10" y="95" as="offset" />
          </mxGeometry>
        </mxCell>
        <mxCell id="cGPuWbrJMK2eRQ6o65dL-72" value="********" style="strokeWidth=1;shadow=0;dashed=0;align=center;html=1;shape=mxgraph.mockup.forms.rrect;rSize=0;strokeColor=#999999;fontColor=#666666;align=left;spacingLeft=5;resizeWidth=1;" parent="cGPuWbrJMK2eRQ6o65dL-66" vertex="1">
          <mxGeometry width="150" height="25" relative="1" as="geometry">
            <mxPoint x="10" y="115" as="offset" />
          </mxGeometry>
        </mxCell>
        <mxCell id="cGPuWbrJMK2eRQ6o65dL-73" value="SIGN IN" style="strokeWidth=1;shadow=0;dashed=0;align=center;html=1;shape=mxgraph.mockup.forms.rrect;rSize=5;strokeColor=none;fontColor=#ffffff;fillColor=#66bbff;fontSize=16;fontStyle=1;" parent="cGPuWbrJMK2eRQ6o65dL-66" vertex="1">
          <mxGeometry y="1" width="80" height="30" relative="1" as="geometry">
            <mxPoint x="20" y="-150" as="offset" />
          </mxGeometry>
        </mxCell>
        <mxCell id="cGPuWbrJMK2eRQ6o65dL-74" value="Forgot Password?" style="strokeWidth=1;shadow=0;dashed=0;align=center;html=1;shape=mxgraph.mockup.forms.anchor;fontSize=12;fontColor=#9999ff;align=left;spacingLeft=0;fontStyle=4;resizeWidth=1;" parent="cGPuWbrJMK2eRQ6o65dL-66" vertex="1">
          <mxGeometry y="1" width="150" height="20" relative="1" as="geometry">
            <mxPoint x="10" y="-110" as="offset" />
          </mxGeometry>
        </mxCell>
        <mxCell id="cGPuWbrJMK2eRQ6o65dL-75" value="" style="shape=line;strokeColor=#ddeeff;strokeWidth=2;html=1;resizeWidth=1;" parent="cGPuWbrJMK2eRQ6o65dL-66" vertex="1">
          <mxGeometry y="1" width="180" height="10" relative="1" as="geometry">
            <mxPoint x="10" y="-90" as="offset" />
          </mxGeometry>
        </mxCell>
        <mxCell id="cGPuWbrJMK2eRQ6o65dL-76" value="New User" style="strokeWidth=1;shadow=0;dashed=0;align=center;html=1;shape=mxgraph.mockup.forms.anchor;fontSize=12;fontColor=#666666;align=left;spacingLeft=0;resizeWidth=1;" parent="cGPuWbrJMK2eRQ6o65dL-66" vertex="1">
          <mxGeometry y="1" width="150" height="20" relative="1" as="geometry">
            <mxPoint x="10" y="-70" as="offset" />
          </mxGeometry>
        </mxCell>
        <mxCell id="cGPuWbrJMK2eRQ6o65dL-77" value="SIGN UP" style="strokeWidth=1;shadow=0;dashed=0;align=center;html=1;shape=mxgraph.mockup.forms.rrect;rSize=5;strokeColor=none;fontColor=#ffffff;fillColor=#66bbff;fontSize=16;fontStyle=1;" parent="cGPuWbrJMK2eRQ6o65dL-66" vertex="1">
          <mxGeometry y="1" width="80" height="30" relative="1" as="geometry">
            <mxPoint x="20" y="-50" as="offset" />
          </mxGeometry>
        </mxCell>
        <mxCell id="cGPuWbrJMK2eRQ6o65dL-78" value="" style="strokeWidth=1;shadow=0;dashed=0;align=center;html=1;shape=mxgraph.mockup.forms.rrect;rSize=5;strokeColor=#999999;fillColor=#ffffff;" parent="1" vertex="1">
          <mxGeometry x="-1070" y="-1225" width="160" height="175" as="geometry" />
        </mxCell>
        <mxCell id="cGPuWbrJMK2eRQ6o65dL-79" value="October 2014" style="strokeWidth=1;shadow=0;dashed=0;align=center;html=1;shape=mxgraph.mockup.forms.anchor;fontColor=#999999;" parent="cGPuWbrJMK2eRQ6o65dL-78" vertex="1">
          <mxGeometry x="30" y="8" width="100" height="20" as="geometry" />
        </mxCell>
        <mxCell id="cGPuWbrJMK2eRQ6o65dL-80" value="&lt;" style="strokeWidth=1;shadow=0;dashed=0;align=center;html=1;shape=mxgraph.mockup.forms.rrect;rSize=4;strokeColor=#999999;fontColor=#008cff;fontSize=19;fontStyle=1;" parent="cGPuWbrJMK2eRQ6o65dL-78" vertex="1">
          <mxGeometry x="8" y="8" width="25" height="20" as="geometry" />
        </mxCell>
        <mxCell id="cGPuWbrJMK2eRQ6o65dL-81" value="&gt;" style="strokeWidth=1;shadow=0;dashed=0;align=center;html=1;shape=mxgraph.mockup.forms.rrect;rSize=4;strokeColor=#999999;fontColor=#008cff;fontSize=19;fontStyle=1;" parent="cGPuWbrJMK2eRQ6o65dL-78" vertex="1">
          <mxGeometry x="127" y="8" width="25" height="20" as="geometry" />
        </mxCell>
        <mxCell id="cGPuWbrJMK2eRQ6o65dL-82" value="Mo" style="strokeWidth=1;shadow=0;dashed=0;align=center;html=1;shape=mxgraph.mockup.forms.anchor;fontColor=#999999;" parent="cGPuWbrJMK2eRQ6o65dL-78" vertex="1">
          <mxGeometry x="10" y="28" width="20" height="20" as="geometry" />
        </mxCell>
        <mxCell id="cGPuWbrJMK2eRQ6o65dL-83" value="Tu" style="strokeWidth=1;shadow=0;dashed=0;align=center;html=1;shape=mxgraph.mockup.forms.anchor;fontColor=#999999;" parent="cGPuWbrJMK2eRQ6o65dL-78" vertex="1">
          <mxGeometry x="30" y="28" width="20" height="20" as="geometry" />
        </mxCell>
        <mxCell id="cGPuWbrJMK2eRQ6o65dL-84" value="We" style="strokeWidth=1;shadow=0;dashed=0;align=center;html=1;shape=mxgraph.mockup.forms.anchor;fontColor=#999999;" parent="cGPuWbrJMK2eRQ6o65dL-78" vertex="1">
          <mxGeometry x="50" y="28" width="20" height="20" as="geometry" />
        </mxCell>
        <mxCell id="cGPuWbrJMK2eRQ6o65dL-85" value="Th" style="strokeWidth=1;shadow=0;dashed=0;align=center;html=1;shape=mxgraph.mockup.forms.anchor;fontColor=#999999;" parent="cGPuWbrJMK2eRQ6o65dL-78" vertex="1">
          <mxGeometry x="70" y="28" width="20" height="20" as="geometry" />
        </mxCell>
        <mxCell id="cGPuWbrJMK2eRQ6o65dL-86" value="Fr" style="strokeWidth=1;shadow=0;dashed=0;align=center;html=1;shape=mxgraph.mockup.forms.anchor;fontColor=#999999;" parent="cGPuWbrJMK2eRQ6o65dL-78" vertex="1">
          <mxGeometry x="90" y="28" width="20" height="20" as="geometry" />
        </mxCell>
        <mxCell id="cGPuWbrJMK2eRQ6o65dL-87" value="Sa" style="strokeWidth=1;shadow=0;dashed=0;align=center;html=1;shape=mxgraph.mockup.forms.anchor;fontColor=#999999;" parent="cGPuWbrJMK2eRQ6o65dL-78" vertex="1">
          <mxGeometry x="110" y="28" width="20" height="20" as="geometry" />
        </mxCell>
        <mxCell id="cGPuWbrJMK2eRQ6o65dL-88" value="Su" style="strokeWidth=1;shadow=0;dashed=0;align=center;html=1;shape=mxgraph.mockup.forms.anchor;fontColor=#999999;" parent="cGPuWbrJMK2eRQ6o65dL-78" vertex="1">
          <mxGeometry x="130" y="28" width="20" height="20" as="geometry" />
        </mxCell>
        <mxCell id="cGPuWbrJMK2eRQ6o65dL-89" value="1" style="strokeWidth=1;shadow=0;dashed=0;align=center;html=1;shape=mxgraph.mockup.forms.rrect;rSize=0;strokeColor=#999999;fontColor=#999999;" parent="cGPuWbrJMK2eRQ6o65dL-78" vertex="1">
          <mxGeometry x="10" y="48" width="20" height="20" as="geometry" />
        </mxCell>
        <mxCell id="cGPuWbrJMK2eRQ6o65dL-90" value="2" style="strokeWidth=1;shadow=0;dashed=0;align=center;html=1;shape=mxgraph.mockup.forms.rrect;rSize=0;strokeColor=#999999;fontColor=#999999;" parent="cGPuWbrJMK2eRQ6o65dL-78" vertex="1">
          <mxGeometry x="30" y="48" width="20" height="20" as="geometry" />
        </mxCell>
        <mxCell id="cGPuWbrJMK2eRQ6o65dL-91" value="3" style="strokeWidth=1;shadow=0;dashed=0;align=center;html=1;shape=mxgraph.mockup.forms.rrect;rSize=0;strokeColor=#999999;fontColor=#999999;" parent="cGPuWbrJMK2eRQ6o65dL-78" vertex="1">
          <mxGeometry x="50" y="48" width="20" height="20" as="geometry" />
        </mxCell>
        <mxCell id="cGPuWbrJMK2eRQ6o65dL-92" value="4" style="strokeWidth=1;shadow=0;dashed=0;align=center;html=1;shape=mxgraph.mockup.forms.rrect;rSize=0;strokeColor=#999999;fontColor=#999999;" parent="cGPuWbrJMK2eRQ6o65dL-78" vertex="1">
          <mxGeometry x="70" y="48" width="20" height="20" as="geometry" />
        </mxCell>
        <mxCell id="cGPuWbrJMK2eRQ6o65dL-93" value="5" style="strokeWidth=1;shadow=0;dashed=0;align=center;html=1;shape=mxgraph.mockup.forms.rrect;rSize=0;strokeColor=#999999;fontColor=#999999;" parent="cGPuWbrJMK2eRQ6o65dL-78" vertex="1">
          <mxGeometry x="90" y="48" width="20" height="20" as="geometry" />
        </mxCell>
        <mxCell id="cGPuWbrJMK2eRQ6o65dL-94" value="6" style="strokeWidth=1;shadow=0;dashed=0;align=center;html=1;shape=mxgraph.mockup.forms.rrect;rSize=0;strokeColor=#999999;fontColor=#999999;" parent="cGPuWbrJMK2eRQ6o65dL-78" vertex="1">
          <mxGeometry x="110" y="48" width="20" height="20" as="geometry" />
        </mxCell>
        <mxCell id="cGPuWbrJMK2eRQ6o65dL-95" value="7" style="strokeWidth=1;shadow=0;dashed=0;align=center;html=1;shape=mxgraph.mockup.forms.rrect;rSize=0;strokeColor=#999999;fontColor=#999999;" parent="cGPuWbrJMK2eRQ6o65dL-78" vertex="1">
          <mxGeometry x="130" y="48" width="20" height="20" as="geometry" />
        </mxCell>
        <mxCell id="cGPuWbrJMK2eRQ6o65dL-96" value="8" style="strokeWidth=1;shadow=0;dashed=0;align=center;html=1;shape=mxgraph.mockup.forms.rrect;rSize=0;strokeColor=#999999;fontColor=#999999;" parent="cGPuWbrJMK2eRQ6o65dL-78" vertex="1">
          <mxGeometry x="10" y="68" width="20" height="20" as="geometry" />
        </mxCell>
        <mxCell id="cGPuWbrJMK2eRQ6o65dL-97" value="9" style="strokeWidth=1;shadow=0;dashed=0;align=center;html=1;shape=mxgraph.mockup.forms.rrect;rSize=0;strokeColor=#999999;fontColor=#999999;" parent="cGPuWbrJMK2eRQ6o65dL-78" vertex="1">
          <mxGeometry x="30" y="68" width="20" height="20" as="geometry" />
        </mxCell>
        <mxCell id="cGPuWbrJMK2eRQ6o65dL-98" value="10" style="strokeWidth=1;shadow=0;dashed=0;align=center;html=1;shape=mxgraph.mockup.forms.rrect;rSize=0;strokeColor=#999999;fontColor=#999999;" parent="cGPuWbrJMK2eRQ6o65dL-78" vertex="1">
          <mxGeometry x="50" y="68" width="20" height="20" as="geometry" />
        </mxCell>
        <mxCell id="cGPuWbrJMK2eRQ6o65dL-99" value="11" style="strokeWidth=1;shadow=0;dashed=0;align=center;html=1;shape=mxgraph.mockup.forms.rrect;rSize=0;strokeColor=#999999;fontColor=#999999;" parent="cGPuWbrJMK2eRQ6o65dL-78" vertex="1">
          <mxGeometry x="70" y="68" width="20" height="20" as="geometry" />
        </mxCell>
        <mxCell id="cGPuWbrJMK2eRQ6o65dL-100" value="12" style="strokeWidth=1;shadow=0;dashed=0;align=center;html=1;shape=mxgraph.mockup.forms.rrect;rSize=0;strokeColor=#999999;fontColor=#999999;" parent="cGPuWbrJMK2eRQ6o65dL-78" vertex="1">
          <mxGeometry x="90" y="68" width="20" height="20" as="geometry" />
        </mxCell>
        <mxCell id="cGPuWbrJMK2eRQ6o65dL-101" value="13" style="strokeWidth=1;shadow=0;dashed=0;align=center;html=1;shape=mxgraph.mockup.forms.rrect;rSize=0;strokeColor=#999999;fontColor=#999999;" parent="cGPuWbrJMK2eRQ6o65dL-78" vertex="1">
          <mxGeometry x="110" y="68" width="20" height="20" as="geometry" />
        </mxCell>
        <mxCell id="cGPuWbrJMK2eRQ6o65dL-102" value="14" style="strokeWidth=1;shadow=0;dashed=0;align=center;html=1;shape=mxgraph.mockup.forms.rrect;rSize=0;strokeColor=#999999;fontColor=#999999;" parent="cGPuWbrJMK2eRQ6o65dL-78" vertex="1">
          <mxGeometry x="130" y="68" width="20" height="20" as="geometry" />
        </mxCell>
        <mxCell id="cGPuWbrJMK2eRQ6o65dL-103" value="15" style="strokeWidth=1;shadow=0;dashed=0;align=center;html=1;shape=mxgraph.mockup.forms.rrect;rSize=0;strokeColor=#999999;fontColor=#999999;" parent="cGPuWbrJMK2eRQ6o65dL-78" vertex="1">
          <mxGeometry x="10" y="88" width="20" height="20" as="geometry" />
        </mxCell>
        <mxCell id="cGPuWbrJMK2eRQ6o65dL-104" value="16" style="strokeWidth=1;shadow=0;dashed=0;align=center;html=1;shape=mxgraph.mockup.forms.rrect;rSize=0;strokeColor=#999999;fontColor=#999999;" parent="cGPuWbrJMK2eRQ6o65dL-78" vertex="1">
          <mxGeometry x="30" y="88" width="20" height="20" as="geometry" />
        </mxCell>
        <mxCell id="cGPuWbrJMK2eRQ6o65dL-105" value="17" style="strokeWidth=1;shadow=0;dashed=0;align=center;html=1;shape=mxgraph.mockup.forms.rrect;rSize=0;strokeColor=#999999;fontColor=#999999;" parent="cGPuWbrJMK2eRQ6o65dL-78" vertex="1">
          <mxGeometry x="50" y="88" width="20" height="20" as="geometry" />
        </mxCell>
        <mxCell id="cGPuWbrJMK2eRQ6o65dL-106" value="18" style="strokeWidth=1;shadow=0;dashed=0;align=center;html=1;shape=mxgraph.mockup.forms.rrect;rSize=0;strokeColor=#999999;fontColor=#999999;" parent="cGPuWbrJMK2eRQ6o65dL-78" vertex="1">
          <mxGeometry x="70" y="88" width="20" height="20" as="geometry" />
        </mxCell>
        <mxCell id="cGPuWbrJMK2eRQ6o65dL-107" value="19" style="strokeWidth=1;shadow=0;dashed=0;align=center;html=1;shape=mxgraph.mockup.forms.rrect;rSize=0;strokeColor=#999999;fontColor=#999999;" parent="cGPuWbrJMK2eRQ6o65dL-78" vertex="1">
          <mxGeometry x="90" y="88" width="20" height="20" as="geometry" />
        </mxCell>
        <mxCell id="cGPuWbrJMK2eRQ6o65dL-108" value="20" style="strokeWidth=1;shadow=0;dashed=0;align=center;html=1;shape=mxgraph.mockup.forms.rrect;rSize=0;strokeColor=#999999;fontColor=#999999;" parent="cGPuWbrJMK2eRQ6o65dL-78" vertex="1">
          <mxGeometry x="110" y="88" width="20" height="20" as="geometry" />
        </mxCell>
        <mxCell id="cGPuWbrJMK2eRQ6o65dL-109" value="21" style="strokeWidth=1;shadow=0;dashed=0;align=center;html=1;shape=mxgraph.mockup.forms.rrect;rSize=0;strokeColor=#999999;fontColor=#999999;" parent="cGPuWbrJMK2eRQ6o65dL-78" vertex="1">
          <mxGeometry x="130" y="88" width="20" height="20" as="geometry" />
        </mxCell>
        <mxCell id="cGPuWbrJMK2eRQ6o65dL-110" value="22" style="strokeWidth=1;shadow=0;dashed=0;align=center;html=1;shape=mxgraph.mockup.forms.rrect;rSize=0;strokeColor=#999999;fontColor=#999999;" parent="cGPuWbrJMK2eRQ6o65dL-78" vertex="1">
          <mxGeometry x="10" y="108" width="20" height="20" as="geometry" />
        </mxCell>
        <mxCell id="cGPuWbrJMK2eRQ6o65dL-111" value="23" style="strokeWidth=1;shadow=0;dashed=0;align=center;html=1;shape=mxgraph.mockup.forms.rrect;rSize=0;strokeColor=#999999;fontColor=#999999;" parent="cGPuWbrJMK2eRQ6o65dL-78" vertex="1">
          <mxGeometry x="30" y="108" width="20" height="20" as="geometry" />
        </mxCell>
        <mxCell id="cGPuWbrJMK2eRQ6o65dL-112" value="25" style="strokeWidth=1;shadow=0;dashed=0;align=center;html=1;shape=mxgraph.mockup.forms.rrect;rSize=0;strokeColor=#999999;fontColor=#999999;" parent="cGPuWbrJMK2eRQ6o65dL-78" vertex="1">
          <mxGeometry x="70" y="108" width="20" height="20" as="geometry" />
        </mxCell>
        <mxCell id="cGPuWbrJMK2eRQ6o65dL-113" value="26" style="strokeWidth=1;shadow=0;dashed=0;align=center;html=1;shape=mxgraph.mockup.forms.rrect;rSize=0;strokeColor=#999999;fontColor=#999999;" parent="cGPuWbrJMK2eRQ6o65dL-78" vertex="1">
          <mxGeometry x="90" y="108" width="20" height="20" as="geometry" />
        </mxCell>
        <mxCell id="cGPuWbrJMK2eRQ6o65dL-114" value="27" style="strokeWidth=1;shadow=0;dashed=0;align=center;html=1;shape=mxgraph.mockup.forms.rrect;rSize=0;strokeColor=#999999;fontColor=#999999;" parent="cGPuWbrJMK2eRQ6o65dL-78" vertex="1">
          <mxGeometry x="110" y="108" width="20" height="20" as="geometry" />
        </mxCell>
        <mxCell id="cGPuWbrJMK2eRQ6o65dL-115" value="28" style="strokeWidth=1;shadow=0;dashed=0;align=center;html=1;shape=mxgraph.mockup.forms.rrect;rSize=0;strokeColor=#999999;fontColor=#999999;" parent="cGPuWbrJMK2eRQ6o65dL-78" vertex="1">
          <mxGeometry x="130" y="108" width="20" height="20" as="geometry" />
        </mxCell>
        <mxCell id="cGPuWbrJMK2eRQ6o65dL-116" value="29" style="strokeWidth=1;shadow=0;dashed=0;align=center;html=1;shape=mxgraph.mockup.forms.rrect;rSize=0;strokeColor=#999999;fontColor=#999999;" parent="cGPuWbrJMK2eRQ6o65dL-78" vertex="1">
          <mxGeometry x="10" y="128" width="20" height="20" as="geometry" />
        </mxCell>
        <mxCell id="cGPuWbrJMK2eRQ6o65dL-117" value="30" style="strokeWidth=1;shadow=0;dashed=0;align=center;html=1;shape=mxgraph.mockup.forms.rrect;rSize=0;strokeColor=#999999;fontColor=#999999;" parent="cGPuWbrJMK2eRQ6o65dL-78" vertex="1">
          <mxGeometry x="30" y="128" width="20" height="20" as="geometry" />
        </mxCell>
        <mxCell id="cGPuWbrJMK2eRQ6o65dL-118" value="31" style="strokeWidth=1;shadow=0;dashed=0;align=center;html=1;shape=mxgraph.mockup.forms.rrect;rSize=0;strokeColor=#999999;fontColor=#999999;" parent="cGPuWbrJMK2eRQ6o65dL-78" vertex="1">
          <mxGeometry x="50" y="128" width="20" height="20" as="geometry" />
        </mxCell>
        <mxCell id="cGPuWbrJMK2eRQ6o65dL-119" value="1" style="strokeWidth=1;shadow=0;dashed=0;align=center;html=1;shape=mxgraph.mockup.forms.rrect;rSize=0;strokeColor=#999999;fontColor=#999999;fillColor=#ddeeff;" parent="cGPuWbrJMK2eRQ6o65dL-78" vertex="1">
          <mxGeometry x="70" y="128" width="20" height="20" as="geometry" />
        </mxCell>
        <mxCell id="cGPuWbrJMK2eRQ6o65dL-120" value="2" style="strokeWidth=1;shadow=0;dashed=0;align=center;html=1;shape=mxgraph.mockup.forms.rrect;rSize=0;strokeColor=#999999;fontColor=#999999;fillColor=#ddeeff;" parent="cGPuWbrJMK2eRQ6o65dL-78" vertex="1">
          <mxGeometry x="90" y="128" width="20" height="20" as="geometry" />
        </mxCell>
        <mxCell id="cGPuWbrJMK2eRQ6o65dL-121" value="3" style="strokeWidth=1;shadow=0;dashed=0;align=center;html=1;shape=mxgraph.mockup.forms.rrect;rSize=0;strokeColor=#999999;fontColor=#999999;fillColor=#ddeeff;" parent="cGPuWbrJMK2eRQ6o65dL-78" vertex="1">
          <mxGeometry x="110" y="128" width="20" height="20" as="geometry" />
        </mxCell>
        <mxCell id="cGPuWbrJMK2eRQ6o65dL-122" value="4" style="strokeWidth=1;shadow=0;dashed=0;align=center;html=1;shape=mxgraph.mockup.forms.rrect;rSize=0;strokeColor=#999999;fontColor=#999999;fillColor=#ddeeff;" parent="cGPuWbrJMK2eRQ6o65dL-78" vertex="1">
          <mxGeometry x="130" y="128" width="20" height="20" as="geometry" />
        </mxCell>
        <mxCell id="cGPuWbrJMK2eRQ6o65dL-123" value="5" style="strokeWidth=1;shadow=0;dashed=0;align=center;html=1;shape=mxgraph.mockup.forms.rrect;rSize=0;strokeColor=#999999;fontColor=#999999;fillColor=#ddeeff;" parent="cGPuWbrJMK2eRQ6o65dL-78" vertex="1">
          <mxGeometry x="10" y="148" width="20" height="20" as="geometry" />
        </mxCell>
        <mxCell id="cGPuWbrJMK2eRQ6o65dL-124" value="6" style="strokeWidth=1;shadow=0;dashed=0;align=center;html=1;shape=mxgraph.mockup.forms.rrect;rSize=0;strokeColor=#999999;fontColor=#999999;fillColor=#ddeeff;" parent="cGPuWbrJMK2eRQ6o65dL-78" vertex="1">
          <mxGeometry x="30" y="148" width="20" height="20" as="geometry" />
        </mxCell>
        <mxCell id="cGPuWbrJMK2eRQ6o65dL-125" value="7" style="strokeWidth=1;shadow=0;dashed=0;align=center;html=1;shape=mxgraph.mockup.forms.rrect;rSize=0;strokeColor=#999999;fontColor=#999999;fillColor=#ddeeff;" parent="cGPuWbrJMK2eRQ6o65dL-78" vertex="1">
          <mxGeometry x="50" y="148" width="20" height="20" as="geometry" />
        </mxCell>
        <mxCell id="cGPuWbrJMK2eRQ6o65dL-126" value="8" style="strokeWidth=1;shadow=0;dashed=0;align=center;html=1;shape=mxgraph.mockup.forms.rrect;rSize=0;strokeColor=#999999;fontColor=#999999;fillColor=#ddeeff;" parent="cGPuWbrJMK2eRQ6o65dL-78" vertex="1">
          <mxGeometry x="70" y="148" width="20" height="20" as="geometry" />
        </mxCell>
        <mxCell id="cGPuWbrJMK2eRQ6o65dL-127" value="9" style="strokeWidth=1;shadow=0;dashed=0;align=center;html=1;shape=mxgraph.mockup.forms.rrect;rSize=0;strokeColor=#999999;fontColor=#999999;fillColor=#ddeeff;" parent="cGPuWbrJMK2eRQ6o65dL-78" vertex="1">
          <mxGeometry x="90" y="148" width="20" height="20" as="geometry" />
        </mxCell>
        <mxCell id="cGPuWbrJMK2eRQ6o65dL-128" value="10" style="strokeWidth=1;shadow=0;dashed=0;align=center;html=1;shape=mxgraph.mockup.forms.rrect;rSize=0;strokeColor=#999999;fontColor=#999999;fillColor=#ddeeff;" parent="cGPuWbrJMK2eRQ6o65dL-78" vertex="1">
          <mxGeometry x="110" y="148" width="20" height="20" as="geometry" />
        </mxCell>
        <mxCell id="cGPuWbrJMK2eRQ6o65dL-129" value="11" style="strokeWidth=1;shadow=0;dashed=0;align=center;html=1;shape=mxgraph.mockup.forms.rrect;rSize=0;strokeColor=#999999;fontColor=#999999;fillColor=#ddeeff;" parent="cGPuWbrJMK2eRQ6o65dL-78" vertex="1">
          <mxGeometry x="130" y="148" width="20" height="20" as="geometry" />
        </mxCell>
        <mxCell id="cGPuWbrJMK2eRQ6o65dL-130" value="24" style="strokeWidth=1;shadow=0;dashed=0;align=center;html=1;shape=mxgraph.mockup.forms.rrect;rSize=0;strokeColor=#ff0000;fontColor=#ffffff;strokeWidth=2;fillColor=#008cff;" parent="cGPuWbrJMK2eRQ6o65dL-78" vertex="1">
          <mxGeometry x="50" y="108" width="20" height="20" as="geometry" />
        </mxCell>
        <mxCell id="cGPuWbrJMK2eRQ6o65dL-131" value="From" style="strokeWidth=1;shadow=0;dashed=0;align=center;html=1;shape=mxgraph.mockup.forms.anchor;align=right;spacingRight=2;fontColor=#666666;" parent="1" vertex="1">
          <mxGeometry x="-1380" y="-990" width="50" height="18" as="geometry" />
        </mxCell>
        <mxCell id="cGPuWbrJMK2eRQ6o65dL-132" value="john@jgraph.com" style="strokeWidth=1;shadow=0;dashed=0;align=center;html=1;shape=mxgraph.mockup.forms.rrect;fillColor=#ffffff;rSize=0;fontColor=#666666;align=left;spacingLeft=3;strokeColor=#999999;" parent="1" vertex="1">
          <mxGeometry x="-1330" y="-990" width="350" height="18" as="geometry" />
        </mxCell>
        <mxCell id="cGPuWbrJMK2eRQ6o65dL-133" value="Subject" style="strokeWidth=1;shadow=0;dashed=0;align=center;html=1;shape=mxgraph.mockup.forms.anchor;align=right;spacingRight=2;fontColor=#666666;" parent="1" vertex="1">
          <mxGeometry x="-1380" y="-955" width="50" height="18" as="geometry" />
        </mxCell>
        <mxCell id="cGPuWbrJMK2eRQ6o65dL-134" value="Greeting" style="strokeWidth=1;shadow=0;dashed=0;align=center;html=1;shape=mxgraph.mockup.forms.rrect;fillColor=#ffffff;rSize=0;fontColor=#666666;align=left;spacingLeft=3;strokeColor=#999999;" parent="1" vertex="1">
          <mxGeometry x="-1330" y="-955" width="350" height="18" as="geometry" />
        </mxCell>
        <mxCell id="cGPuWbrJMK2eRQ6o65dL-135" value="To" style="strokeWidth=1;shadow=0;dashed=0;align=center;html=1;shape=mxgraph.mockup.forms.anchor;align=right;spacingRight=2;fontColor=#666666;" parent="1" vertex="1">
          <mxGeometry x="-1380" y="-920" width="50" height="18" as="geometry" />
        </mxCell>
        <mxCell id="cGPuWbrJMK2eRQ6o65dL-136" value="fred@jgraph.com" style="strokeWidth=1;shadow=0;dashed=0;align=center;html=1;shape=mxgraph.mockup.forms.rrect;fillColor=#ffffff;rSize=0;fontColor=#666666;align=left;spacingLeft=3;strokeColor=#999999;" parent="1" vertex="1">
          <mxGeometry x="-1330" y="-920" width="350" height="18" as="geometry" />
        </mxCell>
        <mxCell id="cGPuWbrJMK2eRQ6o65dL-137" value="CC" style="strokeWidth=1;shadow=0;dashed=0;align=center;html=1;shape=mxgraph.mockup.forms.anchor;align=right;spacingRight=2;fontColor=#666666;" parent="1" vertex="1">
          <mxGeometry x="-1380" y="-885" width="50" height="18" as="geometry" />
        </mxCell>
        <mxCell id="cGPuWbrJMK2eRQ6o65dL-138" value="" style="strokeWidth=1;shadow=0;dashed=0;align=center;html=1;shape=mxgraph.mockup.forms.rrect;fillColor=#ffffff;rSize=0;fontColor=#666666;align=left;spacingLeft=3;strokeColor=#999999;" parent="1" vertex="1">
          <mxGeometry x="-1330" y="-885" width="350" height="18" as="geometry" />
        </mxCell>
        <mxCell id="cGPuWbrJMK2eRQ6o65dL-139" value="BCC" style="strokeWidth=1;shadow=0;dashed=0;align=center;html=1;shape=mxgraph.mockup.forms.anchor;align=right;spacingRight=2;fontColor=#666666;" parent="1" vertex="1">
          <mxGeometry x="-1380" y="-850" width="50" height="18" as="geometry" />
        </mxCell>
        <mxCell id="cGPuWbrJMK2eRQ6o65dL-140" value="" style="strokeWidth=1;shadow=0;dashed=0;align=center;html=1;shape=mxgraph.mockup.forms.rrect;fillColor=#ffffff;rSize=0;fontColor=#666666;align=left;spacingLeft=3;strokeColor=#999999;" parent="1" vertex="1">
          <mxGeometry x="-1330" y="-850" width="350" height="18" as="geometry" />
        </mxCell>
        <mxCell id="cGPuWbrJMK2eRQ6o65dL-141" value="Lorem ipsum dolor sit amet, consectetur adipisicing elit, sed do eiusmod tempor incididunt ut labore et dolore magna aliqua. Ut enim ad minim veniam, quis nostrud exercitation ullamco laboris nisi ut aliquip ex ea commodo consequat. Duis aute irure dolor in reprehenderit in voluptate velit esse cillum dolore eu fugiat nulla pariatur. Excepteur sint occaecat cupidatat non proident, sunt in culpa qui officia deserunt mollit anim id est laborum." style="strokeWidth=1;shadow=0;dashed=0;align=center;html=1;shape=mxgraph.mockup.forms.rrect;fillColor=#ffffff;rSize=0;fontColor=#666666;align=left;spacingLeft=3;strokeColor=#999999;verticalAlign=top;whiteSpace=wrap;" parent="1" vertex="1">
          <mxGeometry x="-1380" y="-815" width="400" height="125" as="geometry" />
        </mxCell>
        <mxCell id="cGPuWbrJMK2eRQ6o65dL-142" value="" style="verticalLabelPosition=bottom;shadow=0;dashed=0;align=center;html=1;verticalAlign=top;strokeWidth=1;shape=mxgraph.mockup.misc.help_icon;" parent="1" vertex="1">
          <mxGeometry x="-780" y="-955" width="32" height="32" as="geometry" />
        </mxCell>
        <mxCell id="cGPuWbrJMK2eRQ6o65dL-152" value="" style="verticalLabelPosition=bottom;shadow=0;dashed=0;align=center;html=1;verticalAlign=top;strokeWidth=1;shape=mxgraph.mockup.containers.videoPlayer;strokeColor=#666666;strokeColor2=#008cff;strokeColor3=#c4c4c4;textColor=#666666;fillColor2=#008cff;barHeight=30;barPos=20;" parent="1" vertex="1">
          <mxGeometry x="-700" y="-955" width="300" height="200" as="geometry" />
        </mxCell>
        <mxCell id="cGPuWbrJMK2eRQ6o65dL-153" value="" style="verticalLabelPosition=bottom;shadow=0;dashed=0;align=center;html=1;verticalAlign=top;strokeWidth=1;shape=mxgraph.mockup.containers.userMale;strokeColor=#666666;strokeColor2=#008cff;" parent="1" vertex="1">
          <mxGeometry x="-340" y="-961" width="100" height="100" as="geometry" />
        </mxCell>
        <mxCell id="cGPuWbrJMK2eRQ6o65dL-154" value="" style="verticalLabelPosition=bottom;shadow=0;dashed=0;align=center;html=1;verticalAlign=top;strokeWidth=1;shape=mxgraph.mockup.containers.userFemale;strokeColor=#666666;strokeColor2=#008cff;" parent="1" vertex="1">
          <mxGeometry x="-200" y="-955" width="100" height="100" as="geometry" />
        </mxCell>
        <mxCell id="cGPuWbrJMK2eRQ6o65dL-155" value="" style="strokeWidth=1;shadow=0;dashed=0;align=center;html=1;shape=mxgraph.mockup.containers.marginRect2;rectMarginTop=32;strokeColor=#666666;gradientColor=none;whiteSpace=wrap;" parent="1" vertex="1">
          <mxGeometry x="-780" y="-1470" width="760" height="480" as="geometry" />
        </mxCell>
        <mxCell id="cGPuWbrJMK2eRQ6o65dL-156" value="Tab 1" style="strokeColor=inherit;fillColor=inherit;gradientColor=inherit;strokeWidth=1;shadow=0;dashed=0;align=center;html=1;shape=mxgraph.mockup.containers.rrect;rSize=0;fontSize=17;fontColor=#666666;gradientColor=none;" parent="cGPuWbrJMK2eRQ6o65dL-155" vertex="1">
          <mxGeometry width="60" height="25" relative="1" as="geometry">
            <mxPoint x="10" as="offset" />
          </mxGeometry>
        </mxCell>
        <mxCell id="cGPuWbrJMK2eRQ6o65dL-157" value="Tab 2" style="strokeWidth=1;shadow=0;dashed=0;align=center;html=1;shape=mxgraph.mockup.containers.rrect;rSize=0;fontSize=17;fontColor=#ffffff;strokeColor=#008cff;fillColor=#008cff;" parent="cGPuWbrJMK2eRQ6o65dL-155" vertex="1">
          <mxGeometry width="60" height="25" relative="1" as="geometry">
            <mxPoint x="75" as="offset" />
          </mxGeometry>
        </mxCell>
        <mxCell id="cGPuWbrJMK2eRQ6o65dL-158" value="Tab 3" style="strokeColor=inherit;fillColor=inherit;gradientColor=inherit;strokeWidth=1;shadow=0;dashed=0;align=center;html=1;shape=mxgraph.mockup.containers.rrect;rSize=0;fontSize=17;fontColor=#666666;gradientColor=none;" parent="cGPuWbrJMK2eRQ6o65dL-155" vertex="1">
          <mxGeometry width="60" height="25" relative="1" as="geometry">
            <mxPoint x="140" as="offset" />
          </mxGeometry>
        </mxCell>
        <mxCell id="cGPuWbrJMK2eRQ6o65dL-159" value="" style="strokeWidth=1;shadow=0;dashed=0;align=center;html=1;shape=mxgraph.mockup.containers.topButton;rSize=5;strokeColor=#008cff;fillColor=#008cff;gradientColor=none;resizeWidth=1;movable=0;deletable=1;" parent="cGPuWbrJMK2eRQ6o65dL-155" vertex="1">
          <mxGeometry width="760" height="7" relative="1" as="geometry">
            <mxPoint y="25" as="offset" />
          </mxGeometry>
        </mxCell>
        <mxCell id="cGPuWbrJMK2eRQ6o65dL-12" value="&lt;font style=&quot;font-size: 17px;&quot;&gt;Lorem ipsum dolor sit amet, consectetur adipisicing elit, sed do eiusmod tempor incididunt ut labore et dolore magna aliqua. Ut enim ad minim veniam, quis nostrud exercitation ullamco laboris nisi ut aliquip ex ea commodo consequat. Duis aute irure dolor in reprehenderit in voluptate velit esse cillum dolore eu fugiat nulla pariatur. Excepteur sint occaecat cupidatat non proident, sunt in culpa qui officia deserunt mollit anim id est laborum.&lt;br&gt;Sed ut perspiciatis unde omnis iste natus error sit voluptatem accusantium doloremque laudantium, totam rem aperiam, eaque ipsa quae ab illo inventore veritatis et quasi architecto beatae vitae dicta sunt explicabo. Nemo enim ipsam voluptatem quia voluptas sit aspernatur aut odit aut fugit, sed quia consequuntur magni dolores eos qui ratione voluptatem sequi nesciunt. Neque porro quisquam est, qui dolorem ipsum quia dolor sit amet, consectetur, adipisci velit, sed quia non numquam eius modi tempora incidunt ut labore et dolore magnam aliquam quaerat voluptatem. Ut enim ad minima veniam, quis nostrum exercitationem ullam corporis suscipit laboriosam, nisi ut aliquid ex ea commodi consequatur? Quis autem vel eum iure reprehenderit qui in ea voluptate velit esse quam nihil molestiae consequatur, vel illum qui dolorem eum fugiat quo voluptas nulla pariatur?&lt;/font&gt;" style="text;spacingTop=-5;whiteSpace=wrap;html=1;align=left;fontSize=12;fontFamily=Helvetica;fillColor=none;strokeColor=none;" parent="cGPuWbrJMK2eRQ6o65dL-155" vertex="1">
          <mxGeometry x="40" y="110" width="680" height="350" as="geometry" />
        </mxCell>
        <mxCell id="cGPuWbrJMK2eRQ6o65dL-14" value="Heading 2" style="text;align=left;fontStyle=1;verticalAlign=middle;spacingLeft=3;spacingRight=3;strokeColor=none;rotatable=0;points=[[0,0.5],[1,0.5]];portConstraint=eastwest;html=1;fontSize=26;" parent="cGPuWbrJMK2eRQ6o65dL-155" vertex="1">
          <mxGeometry x="50" y="40" width="230" height="26" as="geometry" />
        </mxCell>
        <mxCell id="cGPuWbrJMK2eRQ6o65dL-160" value="Some default&#xa;dialog&#xa;text." style="strokeWidth=1;shadow=0;dashed=0;align=center;html=1;shape=mxgraph.mockup.containers.rrect;rSize=0;strokeColor=#666666;fontColor=#666666;fontSize=17;verticalAlign=top;whiteSpace=wrap;fillColor=#ffffff;spacingTop=32;" parent="1" vertex="1">
          <mxGeometry x="-340" y="-815" width="250" height="140" as="geometry" />
        </mxCell>
        <mxCell id="cGPuWbrJMK2eRQ6o65dL-161" value="Dialog Title" style="strokeWidth=1;shadow=0;dashed=0;align=center;html=1;shape=mxgraph.mockup.containers.rrect;rSize=0;fontSize=17;fontColor=#666666;strokeColor=#666666;align=left;spacingLeft=8;fillColor=none;resizeWidth=1;whiteSpace=wrap;" parent="cGPuWbrJMK2eRQ6o65dL-160" vertex="1">
          <mxGeometry width="250" height="30" relative="1" as="geometry" />
        </mxCell>
        <mxCell id="cGPuWbrJMK2eRQ6o65dL-162" value="" style="shape=ellipse;strokeColor=#008cff;resizable=0;fillColor=none;html=1;" parent="cGPuWbrJMK2eRQ6o65dL-161" vertex="1">
          <mxGeometry x="1" y="0.5" width="20" height="20" relative="1" as="geometry">
            <mxPoint x="-25" y="-10" as="offset" />
          </mxGeometry>
        </mxCell>
        <mxCell id="cGPuWbrJMK2eRQ6o65dL-163" value="Cancel" style="strokeWidth=1;shadow=0;dashed=0;align=center;html=1;shape=mxgraph.mockup.containers.rrect;rSize=0;fontSize=16;fontColor=#666666;strokeColor=#c4c4c4;whiteSpace=wrap;fillColor=none;" parent="cGPuWbrJMK2eRQ6o65dL-160" vertex="1">
          <mxGeometry x="0.25" y="1" width="90" height="25" relative="1" as="geometry">
            <mxPoint x="-45" y="-33" as="offset" />
          </mxGeometry>
        </mxCell>
        <mxCell id="cGPuWbrJMK2eRQ6o65dL-164" value="OK" style="strokeWidth=1;shadow=0;dashed=0;align=center;html=1;shape=mxgraph.mockup.containers.rrect;rSize=0;fontSize=16;fontColor=#666666;strokeColor=#c4c4c4;whiteSpace=wrap;fillColor=none;" parent="cGPuWbrJMK2eRQ6o65dL-160" vertex="1">
          <mxGeometry x="0.75" y="1" width="90" height="25" relative="1" as="geometry">
            <mxPoint x="-45" y="-33" as="offset" />
          </mxGeometry>
        </mxCell>
        <mxCell id="cGPuWbrJMK2eRQ6o65dL-165" value="ON" style="strokeWidth=1;shadow=0;dashed=0;align=center;html=1;shape=mxgraph.mockup.buttons.onOffButton;gradientColor=none;strokeColor=#999999;buttonState=on;fillColor2=#008cff;fontColor=#ffffff;fontSize=17;mainText=;spacingRight=40;fontStyle=1;whiteSpace=wrap;" parent="1" vertex="1">
          <mxGeometry x="-898" y="-900" width="150" height="50" as="geometry" />
        </mxCell>
        <mxCell id="cGPuWbrJMK2eRQ6o65dL-167" value="" style="swimlane;shape=mxgraph.bootstrap.anchor;strokeColor=#666666;fillColor=#ffffff;fontColor=#666666;fontStyle=0;childLayout=stackLayout;horizontal=0;startSize=0;horizontalStack=1;resizeParent=1;resizeParentMax=0;resizeLast=0;collapsible=0;marginBottom=0;whiteSpace=wrap;html=1;" parent="1" vertex="1">
          <mxGeometry x="-920" y="-680" width="500" height="50" as="geometry" />
        </mxCell>
        <mxCell id="cGPuWbrJMK2eRQ6o65dL-168" value="Button 1" style="text;strokeColor=#008CFF;align=center;verticalAlign=middle;spacingLeft=10;spacingRight=10;overflow=hidden;points=[[0,0.5],[1,0.5]];portConstraint=eastwest;rotatable=0;whiteSpace=wrap;html=1;shape=mxgraph.mockup.leftButton;rSize=10;fillColor=#008CFF;fontColor=#ffffff;fontSize=17;fontStyle=1;" parent="cGPuWbrJMK2eRQ6o65dL-167" vertex="1">
          <mxGeometry width="125" height="50" as="geometry" />
        </mxCell>
        <mxCell id="cGPuWbrJMK2eRQ6o65dL-169" value="Button 2" style="text;strokeColor=inherit;align=center;verticalAlign=middle;spacingLeft=10;spacingRight=10;overflow=hidden;points=[[0,0.5],[1,0.5]];portConstraint=eastwest;rotatable=0;whiteSpace=wrap;html=1;rSize=5;fillColor=inherit;fontColor=inherit;fontSize=17;fontStyle=1;" parent="cGPuWbrJMK2eRQ6o65dL-167" vertex="1">
          <mxGeometry x="125" width="125" height="50" as="geometry" />
        </mxCell>
        <mxCell id="cGPuWbrJMK2eRQ6o65dL-170" value="Button 3" style="text;strokeColor=inherit;align=center;verticalAlign=middle;spacingLeft=10;spacingRight=10;overflow=hidden;points=[[0,0.5],[1,0.5]];portConstraint=eastwest;rotatable=0;whiteSpace=wrap;html=1;rSize=5;fillColor=inherit;fontColor=inherit;fontSize=17;fontStyle=1;" parent="cGPuWbrJMK2eRQ6o65dL-167" vertex="1">
          <mxGeometry x="250" width="125" height="50" as="geometry" />
        </mxCell>
        <mxCell id="cGPuWbrJMK2eRQ6o65dL-171" value="Button 4" style="text;strokeColor=inherit;align=center;verticalAlign=middle;spacingLeft=10;spacingRight=10;overflow=hidden;points=[[0,0.5],[1,0.5]];portConstraint=eastwest;rotatable=0;whiteSpace=wrap;html=1;shape=mxgraph.mockup.rightButton;rSize=10;fillColor=inherit;fontColor=inherit;fontSize=17;fontStyle=1;" parent="cGPuWbrJMK2eRQ6o65dL-167" vertex="1">
          <mxGeometry x="375" width="125" height="50" as="geometry" />
        </mxCell>
        <mxCell id="cGPuWbrJMK2eRQ6o65dL-172" value="" style="group" parent="1" vertex="1" connectable="0">
          <mxGeometry x="-960" y="-800" width="250" height="50" as="geometry" />
        </mxCell>
        <mxCell id="cGPuWbrJMK2eRQ6o65dL-173" value="Option 1" style="strokeWidth=1;shadow=0;dashed=0;align=center;html=1;shape=mxgraph.mockup.forms.comboBox;strokeColor=#999999;fillColor=#ddeeff;align=left;fillColor2=#aaddff;mainText=;fontColor=#666666;fontSize=17;spacingLeft=3;" parent="cGPuWbrJMK2eRQ6o65dL-172" vertex="1">
          <mxGeometry y="18.75" width="250" height="31.25" as="geometry" />
        </mxCell>
        <mxCell id="cGPuWbrJMK2eRQ6o65dL-174" value="Trier par" style="text;html=1;align=center;verticalAlign=middle;whiteSpace=wrap;rounded=0;fontSize=17;" parent="cGPuWbrJMK2eRQ6o65dL-172" vertex="1">
          <mxGeometry width="130" height="18.75" as="geometry" />
        </mxCell>
        <mxCell id="cGPuWbrJMK2eRQ6o65dL-175" value="Photo item" style="text;spacingTop=-5;align=center;verticalAlign=middle;fontSize=30;fontColor=#CCCCCC;strokeColor=#F0F0F0;imageAspect=1;" parent="1" vertex="1">
          <mxGeometry x="-70" y="-955" width="200" height="120" as="geometry" />
        </mxCell>
        <mxCell id="cGPuWbrJMK2eRQ6o65dL-176" value="" style="verticalLabelPosition=bottom;shadow=0;dashed=0;align=center;html=1;verticalAlign=top;strokeWidth=1;shape=mxgraph.mockup.misc.playbackControls;sketch=0;strokeColor=#999999;fillColor2=#99ddff;strokeColor2=none;fillColor3=#ffffff;strokeColor3=none;" parent="1" vertex="1">
          <mxGeometry x="-700" y="-750" width="250" height="30" as="geometry" />
        </mxCell>
        <mxCell id="cGPuWbrJMK2eRQ6o65dL-177" value="" style="strokeColor=#999999;verticalLabelPosition=bottom;shadow=0;dashed=0;verticalAlign=top;strokeWidth=2;html=1;shape=mxgraph.mockup.misc.volumeIcon;" parent="1" vertex="1">
          <mxGeometry x="-440" y="-750" width="25" height="25" as="geometry" />
        </mxCell>
        <mxCell id="Mc8-L0GyPkzgZiNC3ZI8-1" value="&lt;font style=&quot;font-size: 17px;&quot;&gt;&amp;nbsp; &amp;nbsp;Nom : Devflix&lt;br&gt;&amp;nbsp; &amp;nbsp;Auteur : Nelson Therrien&lt;br&gt;&amp;nbsp; &amp;nbsp;Date de création : 2024-08-11&lt;br&gt;&amp;nbsp; &amp;nbsp;Date mise à jour : 2024-08-11&amp;nbsp; &amp;nbsp; &amp;nbsp; &amp;nbsp; &amp;nbsp; &amp;nbsp; &amp;nbsp; &amp;nbsp; &amp;nbsp; &amp;nbsp; &amp;nbsp; &amp;nbsp; &amp;nbsp; &amp;nbsp; &amp;nbsp; &amp;nbsp; &amp;nbsp; &amp;nbsp; &amp;nbsp; &amp;nbsp; &amp;nbsp; &amp;nbsp; &amp;nbsp; &amp;nbsp; &amp;nbsp; &amp;nbsp; &amp;nbsp; &amp;nbsp; &amp;nbsp; &amp;nbsp; &amp;nbsp; &amp;nbsp; &amp;nbsp; &amp;nbsp; &amp;nbsp;&lt;/font&gt;" style="rounded=0;whiteSpace=wrap;html=1;align=left;fillColor=#4D4D4D;strokeColor=#000000;" vertex="1" parent="1">
          <mxGeometry x="-1430" y="-1920" width="580" height="150" as="geometry" />
        </mxCell>
      </root>
    </mxGraphModel>
  </diagram>
</mxfile>
